<svg xmlns="http://www.w3.org/2000/svg" id="Layer_1" x="0px" y="0px" width="100%" viewBox="0 0 800 800" enable-background="new 0 0 800 800" xml:space="preserve">
<path fill="#000000" opacity="1.000000" stroke="none" d=" M413.486877,556.939880   C402.916199,557.228149 392.755157,557.329590 382.593903,557.372192   C374.162018,557.407532 373.999481,557.498474 374.036163,563.784729   C374.072083,569.932922 374.072052,569.934082 382.823242,569.926331   C387.323120,569.922363 391.826141,570.015442 396.321838,569.874878   C399.932007,569.762024 401.629852,571.221069 401.277802,574.903687   C401.183105,575.894104 401.397430,576.920227 401.255920,577.899048   C400.577484,582.591248 402.657959,583.934143 407.194031,583.781433   C415.102020,583.515198 415.110321,583.760925 414.569489,591.276672   C414.194031,596.494568 415.213898,597.606079 420.806641,597.611328   C443.805939,597.632935 466.805328,597.596558 489.804657,597.613281   C491.769287,597.614746 493.796204,597.221802 495.828369,598.208984   C496.938751,600.864746 496.370148,603.729431 496.316559,606.492004   C496.253082,609.764343 497.588165,610.967590 500.769745,610.866943   C511.674683,610.521729 510.243896,610.767639 510.289185,620.715881   C510.350647,634.215210 510.185577,647.716370 510.351807,661.213867   C510.401337,665.235229 509.359863,666.853333 504.974335,666.579468   C497.204681,666.094116 496.334198,666.922119 496.487946,674.383118   C496.581451,678.919250 495.125610,680.551025 490.496735,680.384888   C483.293396,680.126282 482.995605,680.403137 483.306885,687.711426   C483.522339,692.769897 481.789398,694.305115 476.748810,694.273010   C444.250916,694.066284 411.750793,694.056824 379.252594,694.218445   C374.280640,694.243103 372.432343,692.805115 372.661224,687.682983   C372.990021,680.325256 372.687317,680.309387 365.410309,680.303040   C356.077240,680.294922 346.741974,680.170715 337.412140,680.342163   C333.477844,680.414551 331.673035,679.264709 331.662170,674.986572   C331.639923,666.231262 331.449646,666.239929 322.709961,666.443359   C318.217621,666.547913 313.724640,666.633057 309.231567,666.697449   C305.964935,666.744324 304.301819,665.308899 304.645721,661.841492   C304.809357,660.192017 304.594543,658.508667 304.663727,656.845337   C304.769928,654.292786 303.557098,653.170898 301.065613,653.238708   C300.067200,653.265930 299.066437,653.199036 298.066620,653.185730   C290.777405,653.088501 290.519165,653.077637 290.860229,645.566956   C291.074280,640.853577 289.739075,638.993530 284.768158,639.230042   C276.880463,639.605408 277.438538,639.231384 277.546021,632.300537   C277.623169,627.330078 275.512695,625.662598 270.586426,625.798950   C263.873505,625.984741 263.445343,625.528198 263.790192,618.681519   C264.045624,613.611084 262.356628,611.900085 257.273438,612.136230   C249.957977,612.476013 249.648651,612.169189 249.931152,604.740417   C250.125946,599.617737 248.292297,598.018372 243.289627,598.272095   C236.731064,598.604858 236.715607,598.300476 236.607880,591.814331   C236.503738,585.545532 236.027405,585.078003 229.679062,585.014404   C222.707962,584.944519 222.700684,584.944519 222.698090,578.141357   C222.694275,568.141663 222.853333,558.138550 222.631393,548.143860   C222.541122,544.078125 223.800095,542.556030 228.005127,542.619446   C236.349030,542.745056 236.393127,542.540161 236.548447,533.996155   C236.633255,529.331360 236.663910,524.659729 236.505844,519.998413   C236.398727,516.839478 237.479050,515.497192 240.813339,515.614807   C250.318390,515.949951 249.782654,516.498718 249.785278,506.285706   C249.786392,501.952484 249.967728,497.610260 249.744827,493.288727   C249.538727,489.292725 251.422760,488.085815 255.096497,487.956055   C263.668518,487.653351 263.662140,487.548431 263.661530,478.806335   C263.660645,466.140015 263.519745,453.471100 263.746399,440.808807   C263.822632,436.549988 262.632538,434.847839 258.135071,434.923553   C249.958130,435.061279 249.771271,434.824036 249.876511,426.736237   C249.928940,422.705536 248.728394,421.108856 244.487686,421.197083   C236.659897,421.359924 236.369614,421.128021 236.705444,413.665710   C236.935913,408.544098 235.144180,406.997742 230.110565,407.263092   C222.736145,407.651855 222.716949,407.337646 222.700943,400.029205   C222.690002,395.029358 222.553802,390.024841 222.728531,385.031311   C222.845047,381.701660 221.834579,380.141724 218.221191,380.241882   C208.936508,380.499298 208.860443,381.822296 208.885559,370.711212   C208.925888,352.878448 209.033524,335.043793 208.804840,317.213867   C208.741196,312.251495 210.208786,310.391052 215.355347,310.655151   C222.647995,311.029388 222.669342,310.713806 222.682159,303.246063   C222.689880,298.746185 222.529755,294.239899 222.723969,289.748535   C222.873276,286.295715 221.466461,284.800415 218.079422,284.958038   C216.749466,285.019958 215.409012,284.883453 214.081604,284.967682   C210.231796,285.211884 208.520569,283.476959 208.860733,279.619781   C208.977371,278.297089 208.795074,276.949585 208.885727,275.622742   C209.107574,272.376434 207.596893,271.042633 204.420456,271.267639   C202.928574,271.373291 201.415329,271.177429 199.923416,271.282837   C196.631210,271.515533 195.380371,269.928223 195.613266,266.794067   C195.699432,265.634430 195.532166,264.455719 195.621338,263.296509   C195.968979,258.776123 194.023376,257.122406 189.430496,257.274139   C181.701950,257.529480 181.692307,257.290131 181.688629,249.341095   C181.686157,244.007919 181.793472,238.671951 181.650833,233.342621   C181.566284,230.184204 182.719543,228.920029 185.982071,228.810013   C195.417938,228.491882 195.407852,228.377625 195.643112,219.073318   C195.667786,218.098007 195.820312,217.125931 195.904510,216.246399   C198.177078,215.044159 200.398712,215.466095 202.480087,215.676041   C207.141953,216.146271 209.214233,214.585571 208.898178,209.594467   C208.551376,204.117538 209.005707,198.594193 208.805161,193.102219   C208.663376,189.219543 210.133148,187.491333 214.039719,187.861496   C215.194992,187.970947 216.380951,187.758499 217.535843,187.869858   C221.467865,188.249008 223.107788,186.483261 222.671265,182.615906   C222.597000,181.957977 222.753815,181.270508 222.654831,180.619339   C221.894730,175.618683 224.299332,174.407181 228.926804,174.553680   C238.250519,174.848846 247.590164,174.639465 256.923248,174.640717   C266.922974,174.642059 276.926361,174.804764 286.920685,174.574081   C291.133698,174.476852 292.471344,176.066803 292.303253,180.109726   C292.061096,185.932617 292.333862,191.775040 292.218903,197.605835   C292.159576,200.616653 293.388184,201.780762 296.373535,201.717743   C302.037384,201.598190 307.709595,201.567459 313.370819,201.742447   C316.854034,201.850098 318.293610,200.419464 318.036652,197.018311   C317.949066,195.859100 318.126068,194.679672 318.035187,193.520996   C317.693298,189.161819 319.680908,187.823196 323.972626,187.846481   C351.971039,187.998550 379.970642,187.910172 407.969879,187.933472   C414.919830,187.939255 414.988312,188.062439 415.049713,194.863861   C415.111328,201.685745 415.111328,201.696136 422.020325,201.700089   C431.186737,201.705307 440.356171,201.553284 449.518158,201.752365   C453.440948,201.837601 455.105072,200.440292 454.672424,196.529388   C454.544983,195.377243 454.767487,194.186676 454.643036,193.033859   C454.217407,189.091385 455.972260,187.707016 459.848114,187.838959   C467.812897,188.110138 468.133545,188.514862 467.937469,180.132812   C467.833374,175.682938 469.674408,174.502640 473.908447,174.562927   C488.738312,174.774078 503.574890,174.767822 518.404846,174.557144   C522.690979,174.496231 524.347595,175.734238 524.231873,180.206421   C524.038086,187.697250 524.286011,187.940704 531.813599,187.820587   C536.287476,187.749176 537.889099,189.465820 537.372314,193.723267   C537.212830,195.036652 537.438171,196.392639 537.343262,197.718796   C537.121460,200.817307 538.666626,201.645630 541.558838,201.746735   C551.322571,202.088043 551.315430,202.180862 551.312805,211.784180   C551.309082,225.117142 551.161560,238.452759 551.397095,251.781555   C551.474854,256.183044 550.033386,257.961914 545.658203,257.402039   C544.183105,257.213318 542.661499,257.414459 541.162598,257.378906   C538.724854,257.321136 537.385742,258.383331 537.389404,260.914062   C537.390564,261.747131 537.349182,262.580200 537.347412,263.413330   C537.329102,271.916412 537.769958,271.427612 529.470825,271.197205   C525.290588,271.081146 523.978149,272.596283 524.033020,276.682190   C524.139832,284.618896 523.942688,284.902802 515.818909,284.843262   C510.832275,284.806732 510.250946,287.158478 510.201782,291.309509   C510.150452,295.644806 511.532013,297.205017 515.927124,297.152405   C524.139404,297.054016 524.121338,297.266724 524.117432,305.469971   C524.104614,332.635834 524.115845,359.801697 524.099792,386.967560   C524.095703,393.857086 523.970215,393.953003 517.135803,394.029785   C510.349670,394.106018 510.238617,394.108124 510.369507,401.027710   C510.443665,404.946625 510.245087,407.672974 504.920044,407.482727   C494.507629,407.110870 496.738922,406.825500 496.654907,416.085083   C496.613983,420.598694 495.284485,421.504242 491.339355,421.354645   C485.514709,421.133789 479.671112,421.438385 473.843750,421.256256   C467.847748,421.068878 469.632294,425.404877 469.306885,428.573059   C468.961029,431.940796 469.815857,433.810364 473.858887,433.760925   C488.689270,433.579498 503.525269,433.833191 518.354858,433.620819   C522.750000,433.557892 524.529724,435.113312 524.150696,439.397064   C524.048401,440.553802 524.235840,441.735413 524.143860,442.893982   C523.872986,446.303162 525.335815,447.869476 528.802246,447.618835   C530.459595,447.498962 532.135071,447.657928 533.799561,447.603912   C536.360718,447.520813 537.337769,448.766876 537.332092,451.256439   C537.295654,467.255707 537.292480,483.255188 537.347961,499.254364   C537.357422,501.986450 536.265991,503.269897 533.504028,503.167969   C531.840576,503.106537 530.163879,503.304962 528.506836,503.189972   C525.263489,502.964874 523.873535,504.431610 524.122070,507.610016   C524.160828,508.106567 524.114197,508.609436 524.114197,509.109406   C524.114807,517.437012 524.042236,516.505493 516.823914,516.464783   C510.847748,516.431091 510.351562,517.100220 510.321594,523.083191   C510.285522,530.282959 510.283905,530.205261 502.804321,530.357483   C500.793854,530.398376 497.904938,529.167969 496.972107,531.723999   C495.838165,534.830872 495.981567,538.314758 496.966614,541.553772   C497.361847,542.853394 498.882904,542.672974 500.034332,542.675293   C510.867279,542.697205 521.700623,542.654724 532.532959,542.736633   C535.521912,542.759216 536.560303,541.507202 536.699524,538.554199   C537.154785,528.904846 537.251282,528.907349 546.913696,528.908447   C551.080200,528.908936 555.255859,529.094604 559.410767,528.878540   C563.826904,528.648804 565.313293,530.627869 565.149231,534.842712   C564.794678,543.956848 565.515076,542.834229 572.983093,542.635071   C577.143738,542.524170 578.437317,544.027832 578.404236,548.126648   C578.245789,567.791443 578.255737,587.458923 578.416626,607.123779   C578.448669,611.048645 577.169128,612.688660 573.248352,612.272095   C571.765991,612.114502 570.249573,612.311157 568.751892,612.256470   C566.251770,612.165222 565.028015,613.297729 565.084412,615.820496   C565.106750,616.819153 565.045898,617.819702 565.021606,618.819397   C564.856018,625.623596 564.231873,626.522827 557.424255,625.705566   C552.386963,625.100891 550.986755,626.691040 551.192505,631.553955   C551.519653,639.287048 551.266724,639.297729 543.763977,639.334717   C537.364014,639.366272 537.482117,639.370056 537.267456,646.111145   C537.194946,648.388245 538.715759,651.760986 535.494934,652.675049   C531.863953,653.705505 527.833801,653.863464 524.187805,652.511536   C522.173035,651.764465 522.771973,649.334900 522.766785,647.563782   C522.724915,633.230957 522.560608,618.894775 522.825806,604.566833   C522.914978,599.749512 521.367310,598.108887 516.565247,598.269897   C509.092773,598.520386 508.852570,598.261780 509.048065,590.657410   C509.163696,586.159851 507.365509,584.775146 503.151245,584.958984   C497.827881,585.191284 492.483154,584.904602 487.155609,585.081238   C483.434692,585.204590 481.582733,584.011353 481.713043,579.963745   C481.916687,573.637085 481.877411,567.296692 481.731384,560.966980   C481.655365,557.671875 483.059906,556.398621 486.209167,556.657227   C487.035370,556.725037 487.875641,556.659729 488.707306,556.615723   C495.094391,556.278198 497.747589,552.160400 495.445953,546.257141   C494.567352,544.003723 492.638153,544.179321 490.843994,544.158264   C484.844788,544.087585 478.842499,543.986633 472.845764,544.110413   C469.049103,544.188782 467.737610,542.412964 468.147308,538.884766   C468.281738,537.727295 468.446808,536.563843 468.450287,535.402649   C468.460083,532.113525 467.369385,529.880859 463.477844,530.275635   C461.993988,530.426147 460.474335,530.193909 458.981964,530.295959   C455.681915,530.521973 454.595337,528.894714 454.650696,525.785889   C454.757568,519.788147 454.508789,513.781982 454.700195,507.788574   C454.875122,502.310303 451.068939,503.374481 447.855865,503.191467   C444.527649,503.001862 442.025848,503.258240 442.134399,507.783661   C442.374115,517.777649 442.024933,527.786621 442.304382,537.778564   C442.435791,542.476990 441.005127,544.493774 436.095062,544.175171   C430.949341,543.841248 425.761444,544.213989 420.602142,544.014221   C416.617126,543.859863 414.715515,545.259338 414.935608,549.472412   C415.062195,551.895386 415.509155,554.497314 413.486877,556.939880  M371.499969,419.857849   C401.818634,419.849030 432.137543,419.783051 462.455719,419.899689   C466.498810,419.915222 468.429016,418.675293 468.009888,414.510559   C467.926941,413.686249 468.079773,412.837738 467.992584,412.014313   C467.571991,408.041870 468.953247,406.231293 473.303833,406.523926   C478.611206,406.880920 483.982849,406.314301 489.284760,406.709656   C494.369568,407.088898 496.022461,405.302155 495.764343,400.215607   C495.387115,392.782440 495.705780,392.529388 502.880981,392.784851   C507.342102,392.943695 509.037354,391.666443 509.006866,386.935822   C508.829620,359.448730 508.841736,331.959229 509.024567,304.472137   C509.056183,299.715454 507.598541,297.607635 502.764709,298.302948   C501.949371,298.420258 501.093964,298.236023 500.269623,298.317657   C496.804474,298.660828 495.517700,297.112061 495.616882,293.673920   C495.784851,287.848175 495.503174,282.008881 495.693939,276.184570   C495.815643,272.468018 494.296631,270.962128 490.687836,271.245300   C489.529633,271.336151 488.344116,271.125916 487.193024,271.252502   C483.014832,271.712006 481.569946,269.810638 481.716675,265.748749   C481.927063,259.926117 481.661438,254.087830 481.763153,248.259079   C481.815308,245.271942 480.567413,244.033020 477.619110,244.062363   C471.955963,244.118759 466.281586,243.823029 460.630554,244.081818   C456.154236,244.286835 454.408630,242.838501 454.574615,238.126236   C454.847565,230.377029 454.561401,230.070602 447.205200,230.392105   C442.107635,230.614883 440.071259,228.826462 440.779388,223.817673   C440.894775,223.001587 440.715546,222.146912 440.797119,221.322388   C441.158813,217.665604 439.573547,216.203171 435.884521,216.345490   C430.894287,216.538040 425.890717,216.389557 420.892853,216.377045   C413.743408,216.359131 413.397156,216.335861 413.787628,209.323196   C414.084930,203.982544 411.878021,202.970261 407.092712,203.004211   C380.771942,203.190918 354.449127,203.098022 328.127014,203.089218   C317.775879,203.085770 319.225647,203.039749 319.377289,211.540009   C319.443329,215.243942 318.056976,216.588654 314.400543,216.429199   C309.578705,216.218887 304.740326,216.387085 299.909058,216.395126   C292.318909,216.407745 292.031219,216.419418 292.311035,223.892578   C292.501495,228.979843 290.722382,230.619934 285.695465,230.388321   C278.375214,230.051056 278.043152,230.358871 278.440002,237.630844   C278.721558,242.790756 276.905548,244.353683 271.902374,244.100800   C265.139069,243.758942 264.821808,244.058838 265.069550,251.007050   C265.250916,256.094391 263.448151,258.133423 258.438263,257.374603   C257.624390,257.251312 256.768250,257.432495 255.943207,257.352997   C252.474686,257.018646 251.132538,258.613190 251.241989,262.021210   C251.386261,266.514526 251.299164,271.016357 251.262909,275.514130   C251.186539,284.988892 252.464325,285.187805 242.305206,284.913940   C238.282028,284.805450 237.099060,286.555634 237.280685,290.334106   C237.520370,295.320404 237.343094,300.326996 237.333984,305.324860   C237.321655,312.092987 237.299591,312.430115 230.371902,312.069244   C225.154785,311.797485 223.859451,313.783539 223.926208,318.685333   C224.162125,336.007965 224.008865,353.335815 224.009277,370.661713   C224.009476,378.690918 224.015106,378.843445 232.150604,378.884979   C235.932999,378.904327 237.623672,380.057678 237.408401,384.075745   C237.141388,389.059357 237.345047,394.068085 237.341843,399.065948   C237.336975,406.626007 237.358978,406.979279 244.974060,406.477142   C250.157394,406.135406 251.652847,407.809204 251.382965,412.852814   C251.012451,419.777008 251.329941,419.824341 258.552368,419.828278   C295.868225,419.848572 333.184113,419.852051 371.499969,419.857849  M251.271942,584.484985   C251.272537,587.149658 251.443466,589.827881 251.233612,592.475891   C250.923157,596.393433 252.535995,597.732422 256.432495,597.705139   C264.216614,597.650635 264.346497,597.827148 264.494324,605.476257   C264.568420,609.310913 265.616699,611.222107 269.957092,610.915527   C275.259460,610.540955 280.615387,610.675842 285.935944,610.891602   C289.688782,611.043884 290.945312,609.507141 290.804962,605.887878   C290.605042,600.733215 290.741669,595.564575 290.769348,590.402100   C290.805023,583.750427 290.831573,583.738770 297.450348,583.697937   C304.615997,583.653809 304.615967,583.653809 304.668274,576.620850   C304.717102,570.051270 304.717133,570.051270 311.329773,569.926086   C317.925140,569.801086 317.925140,569.801086 318.068481,563.211304   C318.210419,556.685852 318.210419,556.671387 324.870361,556.662598   C339.358887,556.643555 353.848358,556.544556 368.335480,556.682556   C373.542480,556.732117 372.577301,553.182434 372.681946,550.157593   C372.786499,547.137024 373.252350,543.914001 368.474609,544.086670   C363.984741,544.249023 359.483307,544.097961 354.987030,544.075500   C346.025452,544.030823 345.890472,544.030762 345.719391,534.923767   C345.655212,531.507446 344.550232,530.200012 341.057739,530.256042   C331.234741,530.413574 321.407440,530.308594 311.581818,530.296204   C304.721069,530.287537 304.721069,530.279480 304.666901,523.434692   C304.615753,516.972046 304.142242,516.503296 297.505859,516.410828   C296.507294,516.396912 295.500671,516.368591 294.510284,516.469543   C291.608612,516.765076 290.612152,515.294250 290.747955,512.620850   C290.815430,511.292053 290.631439,509.942108 290.783661,508.627472   C291.260071,504.513092 289.523712,503.073853 285.399139,503.101593   C277.328369,503.155914 277.352356,502.962402 277.063446,494.480988   C277.003662,492.726044 277.415070,490.716583 275.328339,489.646698   C270.115265,486.973877 265.070679,489.978821 264.925018,495.727448   C264.753815,502.483307 265.598297,509.301422 264.253326,515.889160   C261.214600,516.895264 258.524750,516.445923 255.901321,516.350891   C252.441391,516.225525 251.090576,517.598938 251.242737,521.052002   C251.425827,525.207031 251.266006,529.376770 251.269257,533.540161   C251.276932,543.373230 251.285599,543.460205 241.465775,544.044739   C238.550125,544.218262 237.255890,545.224487 237.318481,548.241821   C237.442810,554.234497 237.404434,560.232117 237.334106,566.226562   C237.304352,568.762878 238.464661,569.674133 240.910477,569.928589   C251.291519,571.008484 251.285645,571.066467 251.282974,581.497559   C251.282806,582.163696 251.277573,582.829834 251.271942,584.484985  M440.801331,470.552399   C440.814026,461.306885 440.810089,461.197540 449.972229,460.868530   C453.314209,460.748505 454.796967,459.633667 454.725800,456.132690   C454.670288,453.401062 453.957245,450.503571 455.722992,447.450012   C458.253418,447.450012 460.905487,447.486115 463.556213,447.442230   C468.551666,447.359558 468.165527,443.701691 468.255371,440.334717   C468.351776,436.721344 467.055054,434.902100 463.022552,434.914948   C426.032593,435.032776 389.042145,435.042603 352.051971,434.988983   C347.565063,434.982483 346.455750,437.254150 346.310333,441.226410   C346.159393,445.349396 347.461700,447.652710 351.849030,447.551544   C356.837433,447.436493 361.826355,447.345276 366.814758,447.229309   C373.662964,447.070099 373.904907,447.289886 374.035614,453.970276   C374.051910,454.803436 374.116821,455.640106 374.065094,456.469299   C373.863403,459.702484 375.418549,460.926788 378.570740,460.849884   C383.567596,460.727905 388.569794,460.823456 393.569733,460.828735   C401.220428,460.836823 401.481750,460.848236 401.166962,468.488159   C400.972382,473.210846 402.320892,474.998535 407.276276,474.773560   C414.887939,474.428009 415.033691,474.728516 414.909485,482.276611   C414.846313,486.116028 415.811005,488.108246 420.176300,488.124268   C428.238342,488.153839 428.443390,488.369873 428.242065,496.376648   C428.138397,500.497498 429.439697,502.149567 433.626312,501.825104   C437.258636,501.543579 441.127106,502.519592 440.880585,496.532532   C440.538055,488.213440 440.798492,479.869568 440.801331,470.552399  z"/>
<path fill="green" opacity="1.000000" stroke="none" d=" M168.038895,521.002502   C168.067322,516.006042 168.139923,511.508514 168.104462,507.011841   C168.075409,503.325775 169.525879,501.565338 173.492462,501.726593   C179.145813,501.956421 184.822891,501.590088 190.477631,501.802704   C194.372650,501.949127 196.088379,500.521790 195.652634,496.591797   C195.524979,495.440491 195.749344,494.250671 195.626617,493.098236   C195.235931,489.429840 196.891068,487.950623 200.497147,488.014221   C206.158417,488.114075 211.844498,487.706116 217.480591,488.091125   C223.523682,488.503906 222.488831,484.562531 222.753922,480.929962   C223.077927,476.489899 220.766129,475.382050 216.997925,475.638733   C216.001770,475.706573 215.008835,475.823456 214.012421,475.885498   C210.564590,476.100220 208.747726,474.830322 208.864807,471.015076   C209.165421,461.218933 209.262024,462.276825 199.897888,462.238190   C191.069916,462.201782 182.238785,462.096344 173.414825,462.288116   C169.248932,462.378601 167.891098,460.718689 167.948593,456.662140   C168.063950,448.523102 167.893646,448.349243 159.850525,448.415588   C156.032761,448.447083 154.518433,447.326813 154.594177,443.302032   C154.804794,432.111023 154.018356,433.842682 163.776443,433.704803   C168.439453,433.638916 173.111923,433.854706 177.765610,433.635437   C181.586029,433.455414 183.312897,434.836792 183.144012,438.776520   C182.713287,448.824524 183.465897,447.626556 192.139633,447.631683   C210.295273,447.642426 228.451904,447.674255 246.605804,447.480774   C250.137863,447.443115 251.559982,448.586304 251.258072,452.024506   C251.185486,452.851105 251.244278,453.689270 251.243332,454.522095   C251.234604,462.210785 251.215179,462.542267 243.606705,462.095215   C238.341461,461.785858 237.069702,463.733307 237.245438,468.659729   C237.589615,478.308319 237.181427,487.981873 237.413208,497.637207   C237.511932,501.749847 236.101547,503.346100 231.984100,503.213257   C224.554276,502.973541 223.713760,502.214539 224.086441,511.050232   C224.261749,515.206177 222.632462,516.659973 218.529190,516.471619   C212.878250,516.212158 207.203964,516.511719 201.543076,516.400208   C197.891586,516.328308 195.703461,517.414307 196.379196,521.545898   C196.432251,521.870300 196.387604,522.211060 196.385590,522.544189   C196.339020,530.240601 196.331787,530.462769 188.893906,530.222778   C184.615295,530.084778 182.772415,531.293640 183.074112,535.824707   C183.249496,538.458862 184.455429,542.169922 181.301849,543.520996   C177.812119,545.016052 173.733429,544.571289 170.010742,543.646362   C167.823425,543.102905 168.041168,540.809875 168.033234,538.991272   C168.007843,533.161560 168.031570,527.331604 168.038895,521.002502  z"/>
<path fill="green" opacity="1.000000" stroke="none" d=" M633.259766,438.470337   C633.227539,453.739502 633.082153,468.562836 633.295715,483.381042   C633.361023,487.913818 631.954834,489.970398 627.313904,489.351166   C626.332458,489.220245 625.302795,489.223969 624.321411,489.357422   C619.537903,490.007935 617.875977,488.027832 618.022156,483.196869   C618.319092,473.380585 617.972595,463.546387 618.151306,453.724304   C618.226196,449.608521 616.701050,448.201965 612.594788,448.261353   C604.687134,448.375732 604.684509,448.177429 604.687622,440.427979   C604.689636,435.431946 604.867737,430.427734 604.636536,425.442505   C604.450989,421.440521 605.788818,419.752686 610.011658,419.748688   C618.045715,419.741119 617.998291,419.542816 618.100708,411.492950   C618.166382,406.334930 618.465637,401.179779 618.521484,396.021820   C618.546570,393.709045 619.459045,392.622162 621.788269,392.720734   C622.951599,392.769989 624.119080,392.713379 625.284729,392.714996   C633.158447,392.725983 633.394897,392.735413 633.108032,400.710236   C632.945740,405.222992 634.214661,407.237213 638.964233,406.681519   C641.205994,406.419189 643.607727,406.134399 645.781372,407.250732   C646.811829,409.933929 646.474915,412.640320 646.337769,415.257080   C646.151306,418.815033 647.681519,419.943176 651.055786,419.853912   C657.046692,419.695435 663.048035,419.933228 669.039062,419.777008   C672.612671,419.683838 674.406860,421.003723 674.156555,424.691559   C674.111572,425.354706 674.144043,426.023407 674.147827,426.689514   C674.187500,433.643005 674.190491,433.554230 680.880737,433.750000   C683.022278,433.812683 686.263977,432.527374 686.951782,435.521851   C687.828674,439.339661 687.999084,443.454346 686.680847,447.307770   C686.282654,448.471771 684.689453,448.331543 683.536682,448.332611   C672.379028,448.342987 661.221008,448.276306 650.063965,448.354187   C646.849670,448.376587 645.467346,447.026123 645.677429,443.864044   C645.754517,442.703796 645.743164,441.529388 645.664490,440.368744   C645.515991,438.179138 646.403320,434.840973 642.990845,435.008545   C639.682495,435.170990 635.093750,432.626007 633.259766,438.470337  z"/>
<path fill="green" opacity="1.000000" stroke="none" d=" M568.881104,353.134521   C563.900391,353.137726 559.397888,353.047089 554.901550,353.173096   C551.609558,353.265320 549.884277,352.037476 549.924194,348.571381   C549.999084,342.072632 549.999878,335.572662 549.976257,329.073364   C549.965088,325.983521 551.255493,324.544189 554.498657,324.625763   C559.994568,324.764038 565.497070,324.632629 570.996765,324.637146   C577.443176,324.642395 577.504333,324.653595 577.583801,317.972382   C577.662720,311.345520 577.601074,304.716980 577.601074,298.137939   C578.509155,297.868073 578.962402,297.639313 579.428284,297.609924   C582.894470,297.390991 586.968018,298.772430 589.665710,296.631744   C592.401428,294.460876 590.514404,290.356506 590.929871,287.129913   C591.205505,284.988464 592.062744,283.967010 594.332642,283.676270   C604.683350,282.350616 605.859802,283.228119 605.915710,293.367737   C605.944153,298.523895 605.674194,303.681244 605.662842,308.838287   C605.657654,311.172211 604.615906,312.208252 602.366821,312.211243   C601.367065,312.212555 600.367249,312.227448 599.367493,312.229980   C592.279480,312.247833 591.928528,312.268829 592.361084,319.322632   C592.685120,324.607788 590.762573,325.858307 585.810242,325.531616   C578.644592,325.058960 576.378906,328.561554 578.436035,335.697815   C579.235229,338.470062 581.443481,337.943420 583.318176,337.952545   C596.650696,338.017334 609.983521,338.011475 623.316284,338.004059   C629.649048,338.000549 635.983704,338.023438 642.313843,337.876526   C645.239563,337.808594 646.543823,338.745728 646.458984,341.892700   C646.100647,355.188965 648.419861,352.967102 635.586975,353.142761   C627.255615,353.256866 618.919434,353.259491 610.589050,353.108185   C606.631104,353.036316 605.358398,354.531250 605.684326,358.508118   C606.330261,366.389038 606.139954,366.406799 598.173340,366.410706   C591.527771,366.413971 584.882202,366.411377 578.036255,366.411377   C576.154358,361.149780 581.549988,351.101105 568.881104,353.134521  z"/>
<path fill="green" opacity="1.000000" stroke="none" d=" M536.641235,407.989197   C536.643433,395.349152 536.787415,383.205475 536.596985,371.067047   C536.532959,366.986053 537.836060,365.422363 542.003357,365.604645   C548.145386,365.873352 554.310791,365.771454 560.461121,365.620178   C563.653381,365.541718 565.008545,366.819031 565.008057,369.976807   C565.004150,394.758484 565.042297,419.540161 565.078979,444.321838   C565.083252,447.225006 563.750610,448.309967 560.795105,448.421112   C549.986145,448.827545 549.986572,448.920654 549.945679,438.290344   C549.929016,433.966034 549.892395,429.641296 549.935242,425.317444   C549.960938,422.725769 549.002258,421.473572 546.191711,421.212097   C536.637573,420.323029 536.646790,420.225311 536.654480,410.483490   C536.655029,409.818207 536.653198,409.152893 536.641235,407.989197  z"/>
<path fill="#000000" opacity="1.000000" stroke="none" d=" M433.935272,407.389465   C428.780121,407.380157 424.101135,407.143311 419.453064,407.421906   C415.181427,407.677948 413.364136,406.289764 413.611969,401.795349   C413.914276,396.313538 413.521545,390.796234 413.724518,385.305176   C413.855774,381.755127 412.813446,380.121704 408.964294,380.233856   C399.490906,380.509857 399.840149,381.065277 399.869019,370.949371   C399.894684,361.951477 400.043732,352.949280 399.813171,343.957306   C399.701660,339.607056 401.378571,337.787994 405.630463,338.064209   C406.955444,338.150269 408.296753,337.956299 409.626587,338.003174   C412.605865,338.108246 413.891144,336.725555 413.689209,333.757294   C413.576447,332.099304 413.771210,330.421112 413.672882,328.761200   C413.493591,325.733673 414.924988,324.773315 417.846039,324.635834   C427.097321,324.200409 427.185577,324.106110 427.577850,315.063354   C427.702240,312.195862 428.574463,310.744019 431.634552,310.786041   C438.131744,310.875244 444.632965,310.900085 451.128815,310.768341   C454.436859,310.701263 455.640991,312.197418 455.415802,315.307709   C455.331848,316.467285 455.439911,317.639557 455.425507,318.805634   C455.374054,322.969177 457.326111,324.816315 461.572937,324.705536   C469.924896,324.487640 469.525696,324.369904 469.255188,332.647156   C469.116058,336.903534 470.744141,338.103333 474.772064,338.067291   C483.185394,337.992004 483.199036,338.163818 483.204437,346.613647   C483.213440,360.609985 483.071503,374.608368 483.285461,388.601410   C483.349487,392.789520 481.862091,394.185425 477.810364,394.115509   C467.983612,393.945923 458.149597,394.186310 448.323395,394.001373   C444.043152,393.920807 441.943695,394.987640 442.110779,399.855713   C442.366455,407.304871 442.066010,407.315186 433.935272,407.389465  M428.430603,369.211761   C428.407654,371.358704 428.406952,373.506134 428.356232,375.652435   C428.291016,378.411377 430.084503,379.128418 432.261444,378.829468   C435.104034,378.439148 439.250183,380.797577 440.407623,376.602692   C441.202942,373.720184 442.403198,369.359192 439.101318,367.490356   C435.986023,365.727051 431.836243,365.002228 428.430603,369.211761  z"/>
<path fill="#000000" opacity="1.000000" stroke="none" d=" M280.981689,407.365387   C276.154877,407.372925 271.819427,407.277893 267.493469,407.438690   C264.695557,407.542725 263.451843,406.469666 263.678223,403.671082   C263.745148,402.843872 263.679016,402.005981 263.674164,401.172974   C263.632782,394.103638 263.632812,394.103638 256.460236,394.021210   C250.001587,393.946991 249.830978,393.779602 249.825134,387.168488   C249.812607,373.007080 249.997437,358.841797 249.702042,344.686401   C249.597351,339.670410 251.257355,337.891724 256.238800,337.930359   C263.521576,337.986816 263.721436,337.719940 263.589233,330.099121   C263.518677,326.028503 264.812561,324.546875 268.996002,324.601013   C283.987946,324.794952 298.985321,324.791443 313.977386,324.602722   C318.137177,324.550385 319.451050,326.004028 319.401764,330.090027   C319.222992,344.915680 319.205353,359.746674 319.417603,374.571472   C319.478668,378.838959 318.288696,380.927429 313.803802,380.313263   C313.149597,380.223663 312.454926,380.399292 311.809082,380.283875   C306.992035,379.423248 305.455200,381.659851 305.353455,386.254852   C305.187439,393.751007 304.976196,393.768524 297.300140,394.008179   C294.683716,394.089874 292.465790,394.085236 292.175629,397.785828   C291.419250,407.432770 291.272095,407.421234 280.981689,407.365387  M264.959564,374.361603   C265.144501,376.141693 264.883606,378.374756 267.338379,378.652435   C270.242493,378.980957 273.416504,379.816559 275.995300,377.902008   C278.181488,376.278839 277.165436,367.566254 274.937622,366.682129   C269.066254,364.352051 265.169617,366.999634 264.959564,374.361603  z"/>
<path fill="#000000" opacity="1.000000" stroke="none" d=" M345.647827,392.998108   C345.648865,390.004364 345.863983,387.484161 345.604736,385.013763   C345.135315,380.540497 346.718414,378.625000 351.426331,378.877014   C357.237946,379.188171 363.080658,379.054871 368.905792,378.925507   C372.429565,378.847290 374.140472,380.109894 374.048523,383.843048   C373.888702,390.332794 373.951874,396.828583 373.962952,403.321747   C373.967896,406.223907 372.718262,407.440582 369.701782,407.381958   C362.877869,407.249359 356.047394,407.312378 349.222443,407.443115   C346.673462,407.491913 345.564880,406.575195 345.638702,403.983826   C345.738220,400.489990 345.653656,396.990906 345.647827,392.998108  z"/>
</svg>